<svg id="visual" viewBox="0 0 900 600" width="900" height="600" xmlns="http://www.w3.org/2000/svg" xmlns:xlink="http://www.w3.org/1999/xlink" version="1.1"><rect x="0" y="0" width="900" height="600" fill="#001220"></rect><path d="M0 134L12.5 130.3C25 126.7 50 119.3 75 108.7C100 98 125 84 150 88.7C175 93.3 200 116.7 225 122.2C250 127.7 275 115.3 300 112.2C325 109 350 115 375 120.3C400 125.7 425 130.3 450 131.5C475 132.7 500 130.3 525 126.2C550 122 575 116 600 114.5C625 113 650 116 675 114.8C700 113.7 725 108.3 750 100.8C775 93.3 800 83.7 825 84.8C850 86 875 98 887.5 104L900 110L900 0L887.5 0C875 0 850 0 825 0C800 0 775 0 750 0C725 0 700 0 675 0C650 0 625 0 600 0C575 0 550 0 525 0C500 0 475 0 450 0C425 0 400 0 375 0C350 0 325 0 300 0C275 0 250 0 225 0C200 0 175 0 150 0C125 0 100 0 75 0C50 0 25 0 12.5 0L0 0Z" fill="#0eb1d2"></path><path d="M0 37L12.5 44.3C25 51.7 50 66.3 75 71C100 75.7 125 70.3 150 69.2C175 68 200 71 225 74.2C250 77.3 275 80.7 300 82.3C325 84 350 84 375 85C400 86 425 88 450 86.2C475 84.3 500 78.7 525 72.2C550 65.7 575 58.3 600 56C625 53.7 650 56.3 675 60.8C700 65.3 725 71.7 750 69.7C775 67.7 800 57.3 825 62C850 66.7 875 86.3 887.5 96.2L900 106L900 0L887.5 0C875 0 850 0 825 0C800 0 775 0 750 0C725 0 700 0 675 0C650 0 625 0 600 0C575 0 550 0 525 0C500 0 475 0 450 0C425 0 400 0 375 0C350 0 325 0 300 0C275 0 250 0 225 0C200 0 175 0 150 0C125 0 100 0 75 0C50 0 25 0 12.5 0L0 0Z" fill="#00ade8"></path><path d="M0 56L12.5 49.7C25 43.3 50 30.7 75 25.2C100 19.7 125 21.3 150 21.5C175 21.7 200 20.3 225 19.7C250 19 275 19 300 25C325 31 350 43 375 45.3C400 47.7 425 40.3 450 38.2C475 36 500 39 525 40.5C550 42 575 42 600 43.7C625 45.3 650 48.7 675 45.8C700 43 725 34 750 29.2C775 24.3 800 23.7 825 31C850 38.3 875 53.7 887.5 61.3L900 69L900 0L887.5 0C875 0 850 0 825 0C800 0 775 0 750 0C725 0 700 0 675 0C650 0 625 0 600 0C575 0 550 0 525 0C500 0 475 0 450 0C425 0 400 0 375 0C350 0 325 0 300 0C275 0 250 0 225 0C200 0 175 0 150 0C125 0 100 0 75 0C50 0 25 0 12.5 0L0 0Z" fill="#00a6fb"></path></svg>