<svg id="visual" viewBox="0 0 960 540" width="960" height="540" xmlns="http://www.w3.org/2000/svg" xmlns:xlink="http://www.w3.org/1999/xlink" version="1.1">
    <rect x="0" y="0" width="960" height="540" fill="#002233"></rect>
    <path d="M0 411L10.7 396.8C21.3 382.7 42.7 354.3 64 354.5C85.3 354.7 106.7 383.3 128 391.2C149.3 399 170.7 386 192 375.8C213.3 365.7 234.7 358.3 256 363.7C277.3 369 298.7 387 320 400.7C341.3 414.3 362.7 423.7 384 425.5C405.3 427.3 426.7 421.7 448 411.7C469.3 401.7 490.7 387.3 512 382.2C533.3 377 554.7 381 576 386.8C597.3 392.7 618.7 400.3 640 399.2C661.3 398 682.7 388 704 380.2C725.3 372.3 746.7 366.7 768 372.3C789.3 378 810.7 395 832 414.2C853.3 433.3 874.7 454.7 896 441.3C917.3 428 938.7 380 949.3 356L960 332L960 541L949.3 541C938.7 541 917.3 541 896 541C874.7 541 853.3 541 832 541C810.7 541 789.3 541 768 541C746.7 541 725.3 541 704 541C682.7 541 661.3 541 640 541C618.7 541 597.3 541 576 541C554.7 541 533.3 541 512 541C490.7 541 469.3 541 448 541C426.7 541 405.3 541 384 541C362.7 541 341.3 541 320 541C298.7 541 277.3 541 256 541C234.7 541 213.3 541 192 541C170.7 541 149.3 541 128 541C106.7 541 85.3 541 64 541C42.7 541 21.3 541 10.7 541L0 541Z" fill="#0eb1d2" stroke-linecap="round" stroke-linejoin="miter">
    </path>
</svg>